<svg version="1.1" id="Layer_1" xmlns="http://www.w3.org/2000/svg" xmlns:xlink="http://www.w3.org/1999/xlink" x="0px" y="0px"
	 width="15px" viewBox="0 0 300 227" enable-background="new 0 0 300 227" xml:space="preserve">
<path fill="#000000" opacity="1.000000" stroke="none" 
	d="
M187.000000,228.000000 
	C124.666672,228.000000 62.833347,228.000000 1.000017,228.000000 
	C1.000011,152.333344 1.000011,76.666702 1.000005,1.000037 
	C100.999969,1.000025 200.999939,1.000025 300.999939,1.000012 
	C300.999939,76.666634 300.999939,152.333267 300.999969,227.999939 
	C263.166656,228.000000 225.333328,228.000000 187.000000,228.000000 
M104.954895,192.135712 
	C107.064827,192.423386 109.174545,192.960327 111.284729,192.962234 
	C162.930695,193.008804 214.577118,193.097748 266.222260,192.887207 
	C273.635040,192.856979 280.155609,189.215332 285.695190,184.317688 
	C287.166687,183.016708 287.513550,180.441208 288.987518,179.145950 
	C295.171570,173.711777 295.787933,165.778366 295.682404,159.066864 
	C295.028137,117.462410 298.322723,75.816795 294.255371,34.223682 
	C293.533844,26.845221 288.456726,22.325111 286.238708,16.089003 
	C285.629517,14.376222 281.974487,13.737919 279.708038,12.625145 
	C273.880981,9.764234 268.092651,7.813866 261.232025,7.838489 
	C188.095551,8.100975 114.957436,8.114792 41.820759,7.885154 
	C30.225958,7.848748 20.636023,10.822602 12.990510,19.860615 
	C10.912307,22.317327 9.940820,24.500500 9.948357,27.648489 
	C10.050058,70.127754 10.046257,112.607277 10.020330,155.862686 
	C9.194822,157.184509 8.367007,158.504883 7.544637,159.828659 
	C7.023572,160.667419 6.064096,161.508972 6.059871,162.353073 
	C5.972461,179.816833 5.994043,197.281143 5.994043,213.243530 
	C8.688174,215.602631 10.413157,217.113113 11.953621,218.462006 
	C31.438942,218.462006 50.994564,218.462006 71.006546,218.462006 
	C71.006546,212.770416 70.863724,207.614563 71.090233,202.475021 
	C71.161766,200.851898 72.057434,199.181900 72.875023,197.698166 
	C73.698082,196.204498 74.893143,194.915817 76.322601,193.006500 
	C82.028236,193.006500 88.514046,193.102707 94.994850,192.964279 
	C98.045937,192.899109 101.087402,192.383163 104.954895,192.135712 
z"/>
<path fill="#585858" opacity="1.000000" stroke="none" 
	d="
M10.068581,155.086731 
	C10.046257,112.607277 10.050058,70.127754 9.948357,27.648489 
	C9.940820,24.500500 10.912307,22.317327 12.990510,19.860615 
	C20.636023,10.822602 30.225958,7.848748 41.820759,7.885154 
	C114.957436,8.114792 188.095551,8.100975 261.232025,7.838489 
	C268.092651,7.813866 273.880981,9.764234 279.708038,12.625145 
	C281.974487,13.737919 285.629517,14.376222 286.238708,16.089003 
	C288.456726,22.325111 293.533844,26.845221 294.255371,34.223682 
	C298.322723,75.816795 295.028137,117.462410 295.682404,159.066864 
	C295.787933,165.778366 295.171570,173.711777 288.987518,179.145950 
	C287.513550,180.441208 287.166687,183.016708 285.695190,184.317688 
	C280.155609,189.215332 273.635040,192.856979 266.222260,192.887207 
	C214.577118,193.097748 162.930695,193.008804 111.284729,192.962234 
	C109.174545,192.960327 107.064827,192.423386 104.520866,191.752350 
	C111.601570,185.965683 112.533371,177.038116 115.642120,169.346481 
	C117.725082,164.192825 118.819077,158.645584 120.469856,153.309799 
	C123.459694,143.645813 126.494148,133.995087 129.597519,124.367035 
	C130.621597,121.189888 131.989639,118.125031 133.068909,114.963928 
	C134.722519,110.120636 135.893356,105.070862 137.997681,100.439781 
	C139.139832,97.926193 141.460083,94.875053 143.832458,94.237396 
	C147.674393,93.204727 151.996765,93.959396 156.364685,93.959396 
	C156.493790,95.735893 156.799576,97.044945 156.646347,98.297852 
	C155.514893,107.548462 156.954941,115.836166 165.167526,122.148026 
	C166.406845,123.025253 167.537933,123.924118 168.674561,123.931206 
	C183.837906,124.025795 199.002579,124.049675 214.164978,123.897408 
	C215.426910,123.884735 216.674774,122.473000 217.989075,121.383553 
	C220.878372,117.681908 223.707779,114.308022 226.879456,110.680489 
	C227.484604,109.669518 227.974136,108.912994 227.976837,108.154739 
	C228.028763,93.630707 228.061539,79.106209 227.967270,64.582657 
	C227.958496,63.228752 227.070297,61.880554 226.278076,60.498962 
	C223.308167,57.657150 220.650589,54.846069 217.826996,51.673386 
	C216.512695,50.874409 215.366562,50.062866 214.215836,50.056301 
	C199.145111,49.970360 184.073273,49.947899 169.003296,50.084053 
	C167.662567,50.096165 166.332825,51.325676 164.916641,52.346161 
	C162.754288,54.723484 159.785507,56.389393 158.801834,58.849163 
	C157.352142,62.474297 156.921112,66.649170 156.761978,70.618187 
	C156.438217,78.693260 157.541489,77.671028 149.457565,77.792702 
	C144.821609,77.862488 139.702438,76.895126 135.651230,78.517838 
	C126.149498,82.323730 121.676117,90.706688 119.166809,100.303322 
	C117.711250,105.869972 115.887535,111.342163 114.166603,116.837166 
	C111.915298,124.025665 109.619339,131.200333 107.308731,138.370056 
	C105.870918,142.831482 104.404114,147.284225 102.888313,151.719666 
	C101.497223,155.790176 100.253143,159.933563 98.524559,163.860062 
	C96.563461,168.314758 97.137932,173.966522 91.986404,176.966202 
	C90.949219,176.587982 90.337555,176.248260 89.697128,176.180588 
	C85.656967,175.753448 80.032585,176.828659 77.999435,174.603897 
	C75.867096,172.270599 77.392456,166.763229 76.860710,162.703125 
	C76.684998,161.361526 75.083847,160.206635 73.790543,158.898773 
	C70.964096,156.761063 68.481544,154.690979 65.729004,152.275513 
	C64.720284,151.620712 63.982655,151.044327 63.242653,151.041275 
	C48.296448,150.979630 33.349751,150.948837 18.404001,151.044678 
	C17.272356,151.051956 16.147083,152.052902 14.971935,152.924179 
	C13.306208,153.866516 11.687394,154.476624 10.068581,155.086731 
z"/>
<path fill="#FCFCFC" opacity="1.000000" stroke="none" 
	d="
M165.061859,121.755104 
	C156.954941,115.836166 155.514893,107.548462 156.646347,98.297852 
	C156.799576,97.044945 156.493790,95.735893 156.364685,93.959396 
	C151.996765,93.959396 147.674393,93.204727 143.832458,94.237396 
	C141.460083,94.875053 139.139832,97.926193 137.997681,100.439781 
	C135.893356,105.070862 134.722519,110.120636 133.068909,114.963928 
	C131.989639,118.125031 130.621597,121.189888 129.597519,124.367035 
	C126.494148,133.995087 123.459694,143.645813 120.469856,153.309799 
	C118.819077,158.645584 117.725082,164.192825 115.642120,169.346481 
	C112.533371,177.038116 111.601570,185.965683 104.110031,191.720245 
	C101.087402,192.383163 98.045937,192.899109 94.994850,192.964279 
	C88.514046,193.102707 82.028236,193.006500 76.322601,193.006500 
	C74.893143,194.915817 73.698082,196.204498 72.875023,197.698166 
	C72.057434,199.181900 71.161766,200.851898 71.090233,202.475021 
	C70.863724,207.614563 71.006546,212.770416 71.006546,218.462006 
	C50.994564,218.462006 31.438942,218.462006 11.953621,218.462006 
	C10.413157,217.113113 8.688174,215.602631 5.994043,213.243530 
	C5.994043,197.281143 5.972461,179.816833 6.059871,162.353073 
	C6.064096,161.508972 7.023572,160.667419 7.544637,159.828659 
	C8.367007,158.504883 9.194822,157.184509 10.044456,155.474701 
	C11.687394,154.476624 13.306208,153.866516 15.442411,152.920547 
	C32.639530,152.596756 49.319263,152.608826 65.998993,152.620895 
	C68.481544,154.690979 70.964096,156.761063 73.849197,159.365814 
	C74.251755,165.942429 74.251755,171.984406 74.251755,178.946915 
	C80.906746,178.280762 86.652695,177.705627 92.398636,177.130463 
	C97.137932,173.966522 96.563461,168.314758 98.524559,163.860062 
	C100.253143,159.933563 101.497223,155.790176 102.888313,151.719666 
	C104.404114,147.284225 105.870918,142.831482 107.308731,138.370056 
	C109.619339,131.200333 111.915298,124.025665 114.166603,116.837166 
	C115.887535,111.342163 117.711250,105.869972 119.166809,100.303322 
	C121.676117,90.706688 126.149498,82.323730 135.651230,78.517838 
	C139.702438,76.895126 144.821609,77.862488 149.457565,77.792702 
	C157.541489,77.671028 156.438217,78.693260 156.761978,70.618187 
	C156.921112,66.649170 157.352142,62.474297 158.801834,58.849163 
	C159.785507,56.389393 162.754288,54.723484 165.385193,52.329430 
	C183.287720,51.982540 200.640381,52.008766 217.993027,52.034988 
	C220.650589,54.846069 223.308167,57.657150 226.217499,61.011253 
	C226.491928,78.014229 226.514557,94.474182 226.537186,110.934135 
	C223.707779,114.308022 220.878372,117.681908 217.525314,121.401627 
	C199.688385,121.750000 182.375122,121.752548 165.061859,121.755104 
M53.002754,171.166458 
	C44.359882,171.201447 35.717010,171.236435 26.226086,171.050934 
	C25.796803,171.480865 24.996822,171.907227 24.992645,172.341232 
	C24.897141,182.264832 24.852020,192.189636 24.957430,202.112534 
	C24.963520,202.685852 26.325214,203.244781 27.982105,203.902435 
	C37.180809,203.902435 46.379517,203.902435 55.752853,203.902435 
	C55.752853,193.203339 55.752853,183.135681 56.017353,172.380096 
	C55.320271,172.007294 54.623188,171.634491 53.002754,171.166458 
z"/>
<path fill="#343434" opacity="1.000000" stroke="none" 
	d="
M217.826996,51.673386 
	C200.640381,52.008766 183.287720,51.982540 165.466522,51.973045 
	C166.332825,51.325676 167.662567,50.096165 169.003296,50.084053 
	C184.073273,49.947899 199.145111,49.970360 214.215836,50.056301 
	C215.366562,50.062866 216.512695,50.874409 217.826996,51.673386 
z"/>
<path fill="#3E3E3E" opacity="1.000000" stroke="none" 
	d="
M165.167526,122.148026 
	C182.375122,121.752548 199.688385,121.750000 217.465424,121.729378 
	C216.674774,122.473000 215.426910,123.884735 214.164978,123.897408 
	C199.002579,124.049675 183.837906,124.025795 168.674561,123.931206 
	C167.537933,123.924118 166.406845,123.025253 165.167526,122.148026 
z"/>
<path fill="#484848" opacity="1.000000" stroke="none" 
	d="
M91.986404,176.966217 
	C86.652695,177.705627 80.906746,178.280762 74.251755,178.946915 
	C74.251755,171.984406 74.251755,165.942429 74.193100,159.433411 
	C75.083847,160.206635 76.684998,161.361526 76.860710,162.703125 
	C77.392456,166.763229 75.867096,172.270599 77.999435,174.603897 
	C80.032585,176.828659 85.656967,175.753448 89.697128,176.180588 
	C90.337555,176.248260 90.949219,176.587982 91.986404,176.966217 
z"/>
<path fill="#333333" opacity="1.000000" stroke="none" 
	d="
M65.729004,152.275513 
	C49.319263,152.608826 32.639530,152.596756 15.489326,152.588318 
	C16.147083,152.052902 17.272356,151.051956 18.404001,151.044678 
	C33.349751,150.948837 48.296448,150.979630 63.242653,151.041275 
	C63.982655,151.044327 64.720284,151.620712 65.729004,152.275513 
z"/>
<path fill="#333333" opacity="1.000000" stroke="none" 
	d="
M226.879456,110.680489 
	C226.514557,94.474182 226.491928,78.014229 226.529846,61.041992 
	C227.070297,61.880554 227.958496,63.228752 227.967270,64.582657 
	C228.061539,79.106209 228.028763,93.630707 227.976837,108.154739 
	C227.974136,108.912994 227.484604,109.669518 226.879456,110.680489 
z"/>
<path fill="#323232" opacity="1.000000" stroke="none" 
	d="
M55.752853,173.068024 
	C55.752853,183.135681 55.752853,193.203339 55.752853,203.902435 
	C46.379517,203.902435 37.180809,203.902435 27.544497,203.568298 
	C27.084246,202.849533 27.061602,202.464905 27.503384,202.055786 
	C35.125568,202.022690 42.286873,201.877808 49.439568,202.063919 
	C52.918686,202.154434 54.130501,200.916977 54.055611,197.443115 
	C53.879852,189.290604 54.015438,181.131393 54.013908,172.986053 
	C54.002815,172.997223 53.980515,173.019455 54.276649,173.029480 
	C54.966137,173.048996 55.359497,173.058502 55.752853,173.068024 
z"/>
<path fill="#5E5E5E" opacity="1.000000" stroke="none" 
	d="
M27.038960,202.080261 
	C27.061602,202.464905 27.084246,202.849533 27.081457,203.522293 
	C26.325214,203.244781 24.963520,202.685852 24.957430,202.112534 
	C24.852020,192.189636 24.897141,182.264832 24.992645,172.341232 
	C24.996822,171.907227 25.796803,171.480865 26.677431,171.439590 
	C27.095207,172.199112 27.061638,172.569977 27.014542,173.414719 
	C27.013662,183.285812 27.026310,192.683044 27.038960,202.080261 
z"/>
<path fill="#323232" opacity="1.000000" stroke="none" 
	d="
M27.028069,172.940826 
	C27.061638,172.569977 27.095207,172.199112 27.101458,171.549835 
	C35.717010,171.236435 44.359882,171.201447 53.445236,171.507385 
	C53.918648,172.238693 53.949581,172.629074 53.980515,173.019455 
	C53.980515,173.019455 54.002815,172.997223 53.542927,172.996918 
	C44.398048,172.978027 35.713058,172.959427 27.028069,172.940826 
z"/>
<path fill="#5E5E5E" opacity="1.000000" stroke="none" 
	d="
M54.276649,173.029480 
	C53.949581,172.629074 53.918648,172.238693 53.906906,171.554993 
	C54.623188,171.634491 55.320271,172.007294 55.885101,172.724060 
	C55.359497,173.058502 54.966137,173.048996 54.276649,173.029480 
z"/>
<path fill="#585858" opacity="1.000000" stroke="none" 
	d="
M27.014542,173.414703 
	C35.713058,172.959427 44.398048,172.978027 53.554020,172.985748 
	C54.015438,181.131393 53.879852,189.290604 54.055611,197.443115 
	C54.130501,200.916977 52.918686,202.154434 49.439568,202.063919 
	C42.286873,201.877808 35.125568,202.022690 27.503384,202.055786 
	C27.026310,192.683044 27.013662,183.285812 27.014542,173.414703 
z"/>
</svg>