<svg version="1.1" id="Layer_1" xmlns="http://www.w3.org/2000/svg" xmlns:xlink="http://www.w3.org/1999/xlink" x="0px" y="0px"
	 width="100%" viewBox="0 0 152 115" enable-background="new 0 0 152 115" xml:space="preserve">
<path fill="#010101" opacity="1.000000" stroke="none" 
	d="
M100.000000,116.000000 
	C66.666672,116.000000 33.833340,116.000000 1.000009,116.000000 
	C1.000006,77.666672 1.000006,39.333351 1.000003,1.000019 
	C51.666653,1.000013 102.333305,1.000013 152.999969,1.000006 
	C152.999969,39.333313 152.999969,77.666626 152.999985,115.999969 
	C135.500000,116.000000 118.000000,116.000000 100.000000,116.000000 
M4.292226,107.060982 
	C4.538321,108.035835 4.784416,109.010696 5.430456,110.662201 
	C14.815346,111.113609 24.204311,111.845695 33.580666,111.709518 
	C34.964706,111.689415 36.760040,107.703720 37.500996,105.287758 
	C38.165890,103.119804 37.641026,100.586960 37.641026,97.902054 
	C43.257496,97.902054 48.070518,97.902054 53.833584,97.965408 
	C79.969734,97.975250 106.106781,97.863205 132.241608,98.054077 
	C142.905075,98.131958 149.647812,91.035835 149.853760,81.326996 
	C150.273788,61.525658 150.160583,41.706978 149.907883,21.900023 
	C149.787033,12.427087 142.851868,5.065243 134.468384,5.047071 
	C95.181000,4.961914 55.893242,4.977978 16.606079,5.102687 
	C14.694468,5.108755 12.513176,6.112854 10.929124,7.287990 
	C6.117607,10.857433 3.979158,15.851883 3.991993,21.851627 
	C4.030099,39.664124 3.983692,57.476830 4.041796,75.289223 
	C4.047590,77.065292 4.542146,78.839775 5.026477,81.375031 
	C4.959791,89.726044 4.893104,98.077065 4.292226,107.060982 
z"/>
<path fill="#585858" opacity="1.000000" stroke="none" 
	d="
M4.809861,80.614990 
	C4.542146,78.839775 4.047590,77.065292 4.041796,75.289223 
	C3.983692,57.476830 4.030099,39.664124 3.991993,21.851627 
	C3.979158,15.851883 6.117607,10.857433 10.929124,7.287990 
	C12.513176,6.112854 14.694468,5.108755 16.606079,5.102687 
	C55.893242,4.977978 95.181000,4.961914 134.468384,5.047071 
	C142.851868,5.065243 149.787033,12.427087 149.907883,21.900023 
	C150.160583,41.706978 150.273788,61.525658 149.853760,81.326996 
	C149.647812,91.035835 142.905075,98.131958 132.241608,98.054077 
	C106.106781,97.863205 79.969734,97.975250 53.519196,97.625801 
	C55.145596,93.597908 57.560341,90.077339 58.936253,86.189163 
	C62.715809,75.508537 66.451561,64.780334 69.423241,53.858353 
	C71.110901,47.655579 74.607063,47.227768 79.995850,48.460426 
	C79.995850,49.769165 79.988792,51.072498 79.996994,52.375736 
	C80.043747,59.805008 82.247688,62.002064 89.652534,62.003807 
	C95.316376,62.005142 100.980247,62.015743 106.644051,62.000614 
	C111.864281,61.986668 114.898941,59.142155 114.978760,53.935589 
	C115.080887,47.273811 115.079727,40.608101 114.976273,33.946358 
	C114.908730,29.597471 112.311966,27.076670 107.914154,27.017998 
	C101.585106,26.933559 95.254082,26.990118 88.923912,26.997513 
	C81.707161,27.005945 80.085815,28.672916 79.981903,36.065300 
	C79.964211,37.323715 79.765167,38.579575 79.635323,39.995609 
	C78.295799,39.995609 77.295464,40.095562 76.320694,39.979969 
	C67.644295,38.951065 63.731972,42.543964 61.026455,51.132320 
	C57.669052,61.790020 54.344860,72.458443 50.927372,83.096863 
	C48.132767,91.796310 48.081429,91.779816 38.004185,90.510757 
	C38.004185,89.289047 38.012253,88.002922 38.002842,86.716934 
	C37.950542,79.569519 36.416080,78.013611 29.367994,77.998413 
	C23.704178,77.986206 18.022364,77.731697 12.384532,78.114639 
	C9.814886,78.289185 7.332064,79.741974 4.809861,80.614990 
z"/>
<path fill="#FEFEFE" opacity="1.000000" stroke="none" 
	d="
M4.918169,80.995010 
	C7.332064,79.741974 9.814886,78.289185 12.384532,78.114639 
	C18.022364,77.731697 23.704178,77.986206 29.367994,77.998413 
	C36.416080,78.013611 37.950542,79.569519 38.002842,86.716934 
	C38.012253,88.002922 38.004185,89.289047 38.004185,90.510757 
	C48.081429,91.779816 48.132767,91.796310 50.927372,83.096863 
	C54.344860,72.458443 57.669052,61.790020 61.026455,51.132320 
	C63.731972,42.543964 67.644295,38.951065 76.320694,39.979969 
	C77.295464,40.095562 78.295799,39.995609 79.635323,39.995609 
	C79.765167,38.579575 79.964211,37.323715 79.981903,36.065300 
	C80.085815,28.672916 81.707161,27.005945 88.923912,26.997513 
	C95.254082,26.990118 101.585106,26.933559 107.914154,27.017998 
	C112.311966,27.076670 114.908730,29.597471 114.976273,33.946358 
	C115.079727,40.608101 115.080887,47.273811 114.978760,53.935589 
	C114.898941,59.142155 111.864281,61.986668 106.644051,62.000614 
	C100.980247,62.015743 95.316376,62.005142 89.652534,62.003807 
	C82.247688,62.002064 80.043747,59.805008 79.996994,52.375736 
	C79.988792,51.072498 79.995850,49.769165 79.995850,48.460426 
	C74.607063,47.227768 71.110901,47.655579 69.423241,53.858353 
	C66.451561,64.780334 62.715809,75.508537 58.936253,86.189163 
	C57.560341,90.077339 55.145596,93.597908 53.044174,97.594124 
	C48.070518,97.902054 43.257496,97.902054 37.641026,97.902054 
	C37.641026,100.586960 38.165890,103.119804 37.500996,105.287758 
	C36.760040,107.703720 34.964706,111.689415 33.580666,111.709518 
	C24.204311,111.845695 14.815346,111.113609 5.418212,110.079865 
	C5.212785,108.474380 5.019601,107.451225 4.826417,106.428078 
	C4.893104,98.077065 4.959791,89.726044 4.918169,80.995010 
M13.004228,91.640167 
	C13.004228,95.720818 13.004228,99.801468 13.004228,103.733910 
	C18.730112,103.733910 23.670933,103.733910 28.686337,103.733910 
	C28.686337,98.077057 28.686337,92.688080 28.686337,87.006172 
	C24.239223,87.006172 20.088015,87.187744 15.961458,86.946907 
	C12.837925,86.764626 12.855351,88.543503 13.004228,91.640167 
z"/>
<path fill="#585858" opacity="1.000000" stroke="none" 
	d="
M4.559322,106.744530 
	C5.019601,107.451225 5.212785,108.474380 5.218240,109.741539 
	C4.784416,109.010696 4.538321,108.035835 4.559322,106.744530 
z"/>
<path fill="#585858" opacity="1.000000" stroke="none" 
	d="
M13.004375,91.159805 
	C12.855351,88.543503 12.837925,86.764626 15.961458,86.946907 
	C20.088015,87.187744 24.239223,87.006172 28.686337,87.006172 
	C28.686337,92.688080 28.686337,98.077057 28.686337,103.733910 
	C23.670933,103.733910 18.730112,103.733910 13.004228,103.733910 
	C13.004228,99.801468 13.004228,95.720818 13.004375,91.159805 
z"/>
</svg>